<svg width="40" height="40" viewBox="0 0 40 40" fill="none" xmlns="http://www.w3.org/2000/svg">
<rect width="40" height="40" fill="#1E1E1E"/>
<g id="oracle" clip-path="url(#clip0_0_1)">
<rect width="1920" height="6500" transform="translate(-1507 -3606)" fill="white"/>
<rect id="Rectangle 3268" x="-1513" y="-433" width="1928" height="743" fill="#0E0E0E"/>
<g id="Group 8469">
<g id="Group 8463">
<g id="material-symbols:arrow-circle-left-outline-rounded">
<path id="Vector" d="M21.125 14.4583C20.8195 14.1528 20.4372 14.0072 19.9784 14.0217C19.5206 14.035 19.1389 14.1944 18.8334 14.5C18.5278 14.8055 18.375 15.1944 18.375 15.6667C18.375 16.1389 18.5278 16.5278 18.8334 16.8333L20.3334 18.3333H14.9584C14.4861 18.3333 14.0972 18.4933 13.7917 18.8133C13.4861 19.1322 13.3334 19.5278 13.3334 20C13.3334 20.4722 13.4928 20.8683 13.8117 21.1883C14.1317 21.5072 14.5278 21.6667 15 21.6667H20.3334L18.7917 23.2083C18.4861 23.5139 18.34 23.8961 18.3534 24.355C18.3678 24.8128 18.5278 25.1944 18.8334 25.5C19.1389 25.8055 19.5278 25.9583 20 25.9583C20.4722 25.9583 20.8611 25.8055 21.1667 25.5L25.5 21.1667C25.8334 20.8333 26 20.4444 26 20C26 19.5555 25.8334 19.1667 25.5 18.8333L21.125 14.4583ZM20 3.33332C22.3056 3.33332 24.4722 3.7711 26.5 4.64666C28.5278 5.5211 30.2917 6.70832 31.7917 8.20832C33.2917 9.70832 34.4789 11.4722 35.3534 13.5C36.2289 15.5278 36.6667 17.6944 36.6667 20C36.6667 22.3055 36.2289 24.4722 35.3534 26.5C34.4789 28.5278 33.2917 30.2917 31.7917 31.7917C30.2917 33.2917 28.5278 34.4794 26.5 35.355C24.4722 36.2294 22.3056 36.6667 20 36.6667C17.6945 36.6667 15.5278 36.2294 13.5 35.355C11.4722 34.4794 9.70835 33.2917 8.20835 31.7917C6.70835 30.2917 5.52113 28.5278 4.64669 26.5C3.77113 24.4722 3.33335 22.3055 3.33335 20C3.33335 17.6944 3.77113 15.5278 4.64669 13.5C5.52113 11.4722 6.70835 9.70832 8.20835 8.20832C9.70835 6.70832 11.4722 5.5211 13.5 4.64666C15.5278 3.7711 17.6945 3.33332 20 3.33332ZM20 6.66666C16.3056 6.66666 13.1595 7.96499 10.5617 10.5617C7.96502 13.1594 6.66669 16.3055 6.66669 20C6.66669 23.6944 7.96502 26.8405 10.5617 29.4383C13.1595 32.035 16.3056 33.3333 20 33.3333C23.6945 33.3333 26.84 32.035 29.4367 29.4383C32.0345 26.8405 33.3334 23.6944 33.3334 20C33.3334 16.3055 32.0345 13.1594 29.4367 10.5617C26.84 7.96499 23.6945 6.66666 20 6.66666Z" fill="#5699E8"/>
</g>
</g>
</g>
</g>
<defs>
<clipPath id="clip0_0_1">
<rect width="1920" height="6500" fill="white" transform="translate(-1507 -3606)"/>
</clipPath>
</defs>
</svg>
