<svg width="40" height="40" viewBox="0 0 40 40" fill="none" xmlns="http://www.w3.org/2000/svg">
<g opacity="0.2">
<path d="M18.875 25.5416C19.1805 25.8472 19.5628 25.9928 20.0216 25.9783C20.4794 25.965 20.8611 25.8055 21.1666 25.5C21.4722 25.1944 21.625 24.8055 21.625 24.3333C21.625 23.8611 21.4722 23.4722 21.1666 23.1666L19.6666 21.6666L25.0416 21.6666C25.5139 21.6666 25.9028 21.5066 26.2083 21.1866C26.5139 20.8678 26.6666 20.4722 26.6666 20C26.6666 19.5278 26.5072 19.1316 26.1883 18.8116C25.8683 18.4928 25.4722 18.3333 25 18.3333L19.6666 18.3333L21.2083 16.7916C21.5139 16.4861 21.66 16.1039 21.6466 15.645C21.6322 15.1872 21.4722 14.8055 21.1666 14.5C20.8611 14.1944 20.4722 14.0416 20 14.0416C19.5278 14.0416 19.1389 14.1944 18.8333 14.5L14.5 18.8333C14.1666 19.1666 14 19.5555 14 20C14 20.4444 14.1666 20.8333 14.5 21.1666L18.875 25.5416ZM20 36.6666C17.6944 36.6666 15.5278 36.2289 13.5 35.3533C11.4722 34.4789 9.70831 33.2916 8.20831 31.7916C6.70831 30.2916 5.52109 28.5278 4.64665 26.5C3.77109 24.4722 3.33331 22.3055 3.33331 20C3.33331 17.6944 3.77109 15.5278 4.64665 13.5C5.52109 11.4722 6.70831 9.70831 8.20831 8.20831C9.70831 6.70831 11.4722 5.52053 13.5 4.64498C15.5278 3.77054 17.6944 3.33331 20 3.33331C22.3055 3.33331 24.4722 3.77054 26.5 4.64498C28.5278 5.52053 30.2916 6.70831 31.7916 8.20831C33.2916 9.70831 34.4789 11.4722 35.3533 13.5C36.2289 15.5278 36.6666 17.6944 36.6666 20C36.6666 22.3055 36.2289 24.4722 35.3533 26.5C34.4789 28.5278 33.2916 30.2916 31.7916 31.7916C30.2916 33.2916 28.5278 34.4789 26.5 35.3533C24.4722 36.2289 22.3055 36.6666 20 36.6666ZM20 33.3333C23.6944 33.3333 26.8405 32.035 29.4383 29.4383C32.035 26.8405 33.3333 23.6944 33.3333 20C33.3333 16.3055 32.035 13.1594 29.4383 10.5616C26.8405 7.96498 23.6944 6.66665 20 6.66665C16.3055 6.66665 13.16 7.96498 10.5633 10.5616C7.96553 13.1594 6.66665 16.3055 6.66665 20C6.66665 23.6944 7.96553 26.8405 10.5633 29.4383C13.16 32.035 16.3055 33.3333 20 33.3333Z" fill="white"/>
</g>
</svg>
